<mxfile host="app.diagrams.net" modified="2024-03-21T00:17:28.952Z" agent="Mozilla/5.0 (Windows NT 10.0; Win64; x64) AppleWebKit/537.36 (KHTML, like Gecko) Chrome/122.0.0.0 Safari/537.36 Edg/122.0.0.0" etag="9x-nL9-lBi2gK6xKWl7K" version="24.0.7" type="google">
  <diagram name="PÃ¡gina-1" id="0A6iArZUZt7IYq9e9VF4">
    <mxGraphModel grid="1" page="1" gridSize="10" guides="1" tooltips="1" connect="1" arrows="1" fold="1" pageScale="1" pageWidth="827" pageHeight="1169" math="0" shadow="0">
      <root>
        <mxCell id="0" />
        <mxCell id="1" parent="0" />
        <mxCell id="vj6s5F4gqhxEtnHRJOou-1" value="Inicio" style="rounded=1;whiteSpace=wrap;html=1;" vertex="1" parent="1">
          <mxGeometry x="300" y="40" width="120" height="60" as="geometry" />
        </mxCell>
        <mxCell id="vj6s5F4gqhxEtnHRJOou-2" value="var numero1, numero2, total" style="rounded=0;whiteSpace=wrap;html=1;" vertex="1" parent="1">
          <mxGeometry x="300" y="170" width="120" height="60" as="geometry" />
        </mxCell>
        <mxCell id="vj6s5F4gqhxEtnHRJOou-3" value="" style="endArrow=classic;html=1;rounded=0;exitX=0.5;exitY=1;exitDx=0;exitDy=0;entryX=0.5;entryY=0;entryDx=0;entryDy=0;" edge="1" parent="1" source="vj6s5F4gqhxEtnHRJOou-1" target="vj6s5F4gqhxEtnHRJOou-2">
          <mxGeometry width="50" height="50" relative="1" as="geometry">
            <mxPoint x="360" y="260" as="sourcePoint" />
            <mxPoint x="410" y="210" as="targetPoint" />
          </mxGeometry>
        </mxCell>
        <mxCell id="vj6s5F4gqhxEtnHRJOou-4" value="" style="endArrow=classic;html=1;rounded=0;exitX=0.5;exitY=1;exitDx=0;exitDy=0;entryX=0.498;entryY=0.211;entryDx=0;entryDy=0;entryPerimeter=0;" edge="1" parent="1" source="vj6s5F4gqhxEtnHRJOou-2" target="vj6s5F4gqhxEtnHRJOou-5">
          <mxGeometry width="50" height="50" relative="1" as="geometry">
            <mxPoint x="360" y="320" as="sourcePoint" />
            <mxPoint x="460" y="250" as="targetPoint" />
          </mxGeometry>
        </mxCell>
        <mxCell id="vj6s5F4gqhxEtnHRJOou-5" value="numero1" style="shape=manualInput;whiteSpace=wrap;html=1;" vertex="1" parent="1">
          <mxGeometry x="275" y="290" width="170" height="60" as="geometry" />
        </mxCell>
        <mxCell id="vj6s5F4gqhxEtnHRJOou-12" style="edgeStyle=orthogonalEdgeStyle;rounded=0;orthogonalLoop=1;jettySize=auto;html=1;exitX=0.5;exitY=1;exitDx=0;exitDy=0;entryX=0.5;entryY=0;entryDx=0;entryDy=0;" edge="1" parent="1" source="vj6s5F4gqhxEtnHRJOou-6" target="vj6s5F4gqhxEtnHRJOou-9">
          <mxGeometry relative="1" as="geometry" />
        </mxCell>
        <mxCell id="vj6s5F4gqhxEtnHRJOou-6" value="numwro2" style="shape=manualInput;whiteSpace=wrap;html=1;" vertex="1" parent="1">
          <mxGeometry x="275" y="440" width="170" height="60" as="geometry" />
        </mxCell>
        <mxCell id="vj6s5F4gqhxEtnHRJOou-7" style="edgeStyle=orthogonalEdgeStyle;rounded=0;orthogonalLoop=1;jettySize=auto;html=1;exitX=0.5;exitY=1;exitDx=0;exitDy=0;entryX=0.498;entryY=0.256;entryDx=0;entryDy=0;entryPerimeter=0;" edge="1" parent="1" source="vj6s5F4gqhxEtnHRJOou-5" target="vj6s5F4gqhxEtnHRJOou-6">
          <mxGeometry relative="1" as="geometry" />
        </mxCell>
        <mxCell id="vj6s5F4gqhxEtnHRJOou-14" style="edgeStyle=orthogonalEdgeStyle;rounded=0;orthogonalLoop=1;jettySize=auto;html=1;exitX=0.5;exitY=1;exitDx=0;exitDy=0;" edge="1" parent="1" source="vj6s5F4gqhxEtnHRJOou-9">
          <mxGeometry relative="1" as="geometry">
            <mxPoint x="360" y="750" as="targetPoint" />
          </mxGeometry>
        </mxCell>
        <mxCell id="vj6s5F4gqhxEtnHRJOou-9" value="total = numero1 - numero2" style="rounded=0;whiteSpace=wrap;html=1;" vertex="1" parent="1">
          <mxGeometry x="300" y="600" width="120" height="60" as="geometry" />
        </mxCell>
        <mxCell id="vj6s5F4gqhxEtnHRJOou-16" style="edgeStyle=orthogonalEdgeStyle;rounded=0;orthogonalLoop=1;jettySize=auto;html=1;exitX=0;exitY=0;exitDx=87.5;exitDy=50;exitPerimeter=0;entryX=0.5;entryY=0;entryDx=0;entryDy=0;" edge="1" parent="1" source="vj6s5F4gqhxEtnHRJOou-11" target="vj6s5F4gqhxEtnHRJOou-15">
          <mxGeometry relative="1" as="geometry" />
        </mxCell>
        <mxCell id="vj6s5F4gqhxEtnHRJOou-11" value="total" style="shape=display;whiteSpace=wrap;html=1;" vertex="1" parent="1">
          <mxGeometry x="275" y="760" width="160" height="50" as="geometry" />
        </mxCell>
        <mxCell id="vj6s5F4gqhxEtnHRJOou-15" value="FIM" style="rounded=1;whiteSpace=wrap;html=1;" vertex="1" parent="1">
          <mxGeometry x="300" y="890" width="120" height="60" as="geometry" />
        </mxCell>
      </root>
    </mxGraphModel>
  </diagram>
</mxfile>
